<svg width="658" height="658" viewBox="0 0 658 658" fill="none" xmlns="http://www.w3.org/2000/svg">
    <rect width="658" height="658" rx="114" fill="white" />
    <path fill-rule="evenodd" clip-rule="evenodd"
        d="M484.4 70C498.704 70 510.3 81.5958 510.3 95.9V147.7C510.3 162.004 498.704 173.6 484.4 173.6C470.096 173.6 458.5 162.004 458.5 147.7V95.9C458.5 81.5958 470.096 70 484.4 70Z"
        fill="#4477CE" />
    <path fill-rule="evenodd" clip-rule="evenodd"
        d="M82.95 251.3C82.95 236.996 94.5458 225.4 108.85 225.4H125.963H532.037H549.15C563.454 225.4 575.05 236.996 575.05 251.3C575.05 265.604 563.454 277.2 549.15 277.2H536.154H121.846H108.85C94.5458 277.2 82.95 265.604 82.95 251.3Z"
        fill="#4477CE" />
    <path fill-rule="evenodd" clip-rule="evenodd"
        d="M121.8 285.281V424.519C121.8 452.252 123.32 472.771 126.748 488.194C130.11 503.324 134.954 511.918 140.518 517.482C146.081 523.045 154.676 527.89 169.805 531.252C185.229 534.68 205.748 536.2 233.481 536.2H424.519C452.252 536.2 472.771 534.68 488.194 531.252C503.324 527.89 511.918 523.045 517.482 517.482C523.045 511.918 527.89 503.324 531.252 488.194C534.68 472.771 536.2 452.252 536.2 424.519V285.281C536.2 282.516 536.185 279.823 536.154 277.2H121.846C121.815 279.823 121.8 282.516 121.8 285.281ZM387.24 374.454H433.648C432.164 361.881 428.774 350.721 423.476 340.973C418.249 331.225 411.468 322.996 403.133 316.285C394.798 309.504 385.227 304.348 374.419 300.816C363.682 297.284 352.027 295.518 339.454 295.518C320.382 295.518 303.218 299.898 287.96 308.657C272.703 317.345 260.624 329.989 251.724 346.588C242.824 363.188 238.374 383.319 238.374 406.983C238.374 430.575 242.753 450.671 251.512 467.271C260.341 483.87 272.35 496.549 287.536 505.308C302.794 514.067 320.1 518.447 339.454 518.447C353.37 518.447 365.837 516.363 376.856 512.195C387.946 507.957 397.482 502.236 405.464 495.031C413.516 487.755 419.909 479.526 424.642 470.343C429.445 461.09 432.447 451.483 433.648 441.524L387.24 441.312C386.18 447.104 384.273 452.26 381.518 456.781C378.834 461.302 375.443 465.152 371.346 468.33C367.25 471.438 362.552 473.805 357.255 475.429C352.027 477.054 346.341 477.866 340.196 477.866C329.247 477.866 319.605 475.182 311.27 469.814C302.935 464.445 296.437 456.499 291.775 445.974C287.183 435.449 284.888 422.452 284.888 406.983C284.888 391.937 287.183 379.152 291.775 368.627C296.366 358.032 302.829 349.979 311.164 344.469C319.499 338.889 329.283 336.099 340.514 336.099C346.73 336.099 352.487 336.982 357.784 338.748C363.153 340.514 367.885 343.057 371.982 346.377C376.079 349.696 379.434 353.723 382.048 358.455C384.661 363.117 386.392 368.45 387.24 374.454Z"
        fill="#4477CE" fill-opacity="0.33" />
    <path
        d="M531.252 221.605C527.89 206.476 523.045 197.881 517.482 192.318C511.918 186.754 503.324 181.91 488.194 178.548C472.771 175.12 452.252 173.6 424.519 173.6H233.481C205.748 173.6 185.229 175.12 169.805 178.548C154.676 181.91 146.081 186.754 140.518 192.318C134.954 197.881 130.11 206.476 126.748 221.605C126.474 222.837 126.212 224.102 125.963 225.4H532.037C531.788 224.102 531.526 222.837 531.252 221.605Z"
        fill="#4477CE" fill-opacity="0.33" />
    <path fill-rule="evenodd" clip-rule="evenodd"
        d="M199.5 95.9C199.5 81.5958 187.904 70 173.6 70C159.296 70 147.7 81.5958 147.7 95.9V130.789C130.89 135.795 116.008 143.572 103.89 155.69C89.2201 170.359 80.9125 189.079 76.1814 210.367C71.5156 231.362 70 256.365 70 285.281V424.519C70 453.435 71.5156 478.438 76.1814 499.432C80.9125 520.721 89.2201 539.44 103.89 554.11C118.559 568.78 137.279 577.087 158.567 581.819C179.562 586.484 204.565 588 233.481 588H424.519C453.435 588 478.438 586.484 499.432 581.819C520.721 577.087 539.44 568.78 554.11 554.11C568.78 539.44 577.087 520.721 581.818 499.432C586.484 478.438 588 453.435 588 424.519V285.281C588 256.365 586.484 231.362 581.819 210.367C577.087 189.079 568.78 170.359 554.11 155.69C539.44 141.02 520.721 132.713 499.432 127.981C478.438 123.316 453.435 121.8 424.519 121.8H233.481C221.477 121.8 210.148 122.061 199.5 122.7V95.9ZM199.5 122.7V147.7C199.5 162.004 187.904 173.6 173.6 173.6C159.296 173.6 147.7 162.004 147.7 147.7V130.789C151.24 129.735 154.865 128.804 158.567 127.981C170.847 125.252 184.497 123.601 199.5 122.7ZM125.963 225.4C126.212 224.102 126.474 222.837 126.748 221.605C130.11 206.476 134.954 197.881 140.518 192.318C146.081 186.754 154.676 181.91 169.805 178.548C185.229 175.12 205.748 173.6 233.481 173.6H424.519C452.252 173.6 472.771 175.12 488.194 178.548C503.324 181.91 511.918 186.754 517.482 192.318C523.045 197.881 527.89 206.476 531.252 221.605C531.526 222.837 531.788 224.102 532.037 225.4C534.602 238.733 535.902 255.609 536.154 277.2C536.185 279.823 536.2 282.516 536.2 285.281V424.519C536.2 452.252 534.68 472.771 531.252 488.194C527.89 503.324 523.045 511.918 517.482 517.482C511.918 523.045 503.324 527.89 488.194 531.252C472.771 534.68 452.252 536.2 424.519 536.2H233.481C205.748 536.2 185.229 534.68 169.805 531.252C154.676 527.89 146.081 523.045 140.518 517.482C134.954 511.918 130.11 503.324 126.748 488.194C123.32 472.771 121.8 452.252 121.8 424.519V285.281C121.8 282.516 121.815 279.823 121.846 277.2C122.097 255.609 123.398 238.733 125.963 225.4Z"
        fill="#4477CE" />
    <path
        d="M173.6 173.6C187.904 173.6 199.5 162.004 199.5 147.7V122.7C184.497 123.601 170.847 125.252 158.567 127.981C154.865 128.804 151.24 129.735 147.7 130.789V147.7C147.7 162.004 159.296 173.6 173.6 173.6Z"
        fill="#4477CE" />
    <path
        d="M433.648 374.454H387.24C386.392 368.45 384.661 363.117 382.048 358.455C379.434 353.723 376.079 349.696 371.982 346.377C367.885 343.057 363.153 340.514 357.784 338.748C352.487 336.982 346.73 336.099 340.514 336.099C329.283 336.099 319.499 338.889 311.164 344.469C302.829 349.979 296.366 358.032 291.775 368.627C287.183 379.152 284.888 391.937 284.888 406.983C284.888 422.452 287.183 435.449 291.775 445.974C296.437 456.499 302.935 464.445 311.27 469.814C319.605 475.182 329.247 477.866 340.196 477.866C346.341 477.866 352.027 477.054 357.255 475.429C362.552 473.805 367.25 471.438 371.346 468.33C375.443 465.152 378.834 461.302 381.518 456.781C384.273 452.26 386.18 447.104 387.24 441.312L433.648 441.524C432.447 451.483 429.445 461.09 424.642 470.343C419.909 479.526 413.516 487.755 405.464 495.031C397.482 502.236 387.946 507.957 376.856 512.195C365.837 516.363 353.37 518.447 339.454 518.447C320.1 518.447 302.794 514.067 287.536 505.308C272.35 496.549 260.341 483.87 251.512 467.271C242.753 450.671 238.374 430.575 238.374 406.983C238.374 383.319 242.824 363.188 251.724 346.588C260.624 329.989 272.703 317.345 287.96 308.657C303.218 299.898 320.382 295.518 339.454 295.518C352.027 295.518 363.682 297.284 374.419 300.816C385.227 304.348 394.798 309.504 403.133 316.285C411.468 322.996 418.249 331.225 423.476 340.973C428.774 350.721 432.164 361.881 433.648 374.454Z"
        fill="#4477CE" />
</svg>